<?xml version="1.0" encoding="UTF-8"?>
<svg width="100" height="100" viewBox="0 0 95 100" version="1.1" xmlns="http://www.w3.org/2000/svg" xmlns:xlink="http://www.w3.org/1999/xlink">
    <!-- Generator: Sketch 52.6 (67491) - http://www.bohemiancoding.com/sketch -->
    <title>Shape Copy</title>
    <desc>Created with Sketch.</desc>
    <g id="Page-1" stroke="none" stroke-width="1" fill="none" fill-rule="evenodd">
        <path d="M47.5,99.9999924 C45.5195923,99.9999924 43.5391541,99.5172806 41.7645264,98.5518723 L5.73638916,78.9557571 C2.18719482,77.0249557 0,73.4572983 0,69.5965347 L0,30.40345 C0,26.5426636 2.18719482,22.9750366 5.73638916,21.0442047 L41.7645264,1.44812012 C43.5391541,0.482704163 45.5195923,0 47.5,0 C49.4804077,0 51.4608459,0.482704163 53.2354736,1.44812012 L89.2645874,21.0442047 C92.8137817,22.9750366 95,26.5426636 95,30.40345 L95,69.5965347 C95,73.4572983 92.8137817,77.0249557 89.2645874,78.9557571 L53.2354736,98.5518723 C51.4608459,99.5172806 49.4804077,99.9999924 47.5,99.9999924 Z" id="Shape-Copy" fill="#FFF"></path>
    </g>
</svg>